<?xml version="1.0" standalone="no"?>
<!DOCTYPE svg PUBLIC "-//W3C//DTD SVG 20010904//EN"
        "http://www.w3.org/TR/2001/REC-SVG-20010904/DTD/svg10.dtd">
<svg version="1.0"
     xmlns="http://www.w3.org/2000/svg"
     width="1024pt"
     height="1024pt"
     viewBox="0 250 1024 1024"
     preserveAspectRatio="xMidYMid slice"
     fill="#FFFFFF"
>

    <g transform="translate(0.000000,1536.000000) scale(0.100000,-0.100000)"
       stroke="none">
        <path d="M6160 9749 c-449 -43 -818 -271 -1024 -632 -144 -254 -178 -645 -82
-935 42 -125 107 -224 220 -338 164 -164 326 -257 691 -399 619 -239 700 -273
825 -351 219 -135 323 -303 323 -519 -1 -327 -218 -558 -617 -653 -103 -25
-127 -27 -331 -27 -190 1 -234 4 -325 23 -521 113 -788 379 -850 847 -6 44
-14 270 -17 503 l-6 422 -473 0 -474 0 0 -235 0 -235 219 0 218 0 6 -327 c6
-342 15 -439 58 -572 101 -317 421 -608 842 -765 451 -168 1048 -187 1470 -45
344 115 622 347 758 634 56 119 76 197 89 342 11 120 -1 288 -26 388 -58 223
-246 474 -464 617 -179 117 -288 167 -785 358 -88 34 -189 73 -225 87 -98 38
-271 126 -337 171 -73 50 -159 142 -196 209 -41 77 -67 191 -67 297 1 285 158
505 432 604 281 101 606 53 831 -123 108 -86 207 -251 243 -407 l18 -78 274 0
274 0 -7 43 c-27 182 -71 323 -137 447 -117 220 -285 387 -502 501 -170 89
-324 131 -541 149 -135 11 -183 11 -305 -1z"/>
        <path d="M3756 9735 c-489 -80 -872 -362 -1087 -800 -102 -208 -155 -406 -181
-675 -16 -171 -16 -1209 1 -1385 54 -574 312 -1003 756 -1258 355 -204 868
-254 1260 -122 85 28 241 101 251 116 3 5 -17 35 -44 67 -59 68 -169 220 -203
280 -17 29 -29 40 -39 36 -141 -61 -261 -86 -415 -87 -144 -1 -238 14 -363 58
-245 88 -423 264 -528 523 -95 235 -107 382 -101 1192 5 653 8 703 63 895 33
119 66 192 131 292 65 103 117 159 202 222 234 173 552 217 867 120 79 -24
232 -98 280 -134 18 -14 37 -25 43 -25 6 0 23 24 37 53 15 28 70 121 122 206
l95 155 -27 22 c-36 32 -152 98 -231 134 -88 39 -210 78 -325 101 -129 27
-438 34 -564 14z"/>
    </g>
</svg>